<?xml version="1.0" encoding="UTF-8"?>
<svg xmlns="http://www.w3.org/2000/svg" xmlns:xlink="http://www.w3.org/1999/xlink" width="5.226337in" height="4.792401in" version="1.1" viewBox="158.618118 13.664246 689.876511 632.596929">
  <!--
	Exported with Concepts: Smarter Sketching
	Version: 426
	iOS Version: 11.0
	https://concepts.tophatch.com/
	-->
  <title>Untitled</title>
  <desc>Drawing exported from Concepts: Smarter Sketching</desc>
  <g id="Layer_Copy_1" opacity="1.000">
    <path id="STROKE_C05E72EE-CC1C-480F-9B51-236DAC4DFBEA" opacity="1.000" fill="#ffce2b" stroke="#ffce2b" stroke-width="0.500" stroke-opacity="1.000" stroke-linecap="round" stroke-linejoin="round" d="M 294.965 115.092 Q 294.310 114.620 294.552 125.464 Q 294.794 136.308 300.480 178.606 Q 306.165 220.904 307.275 238.034 Q 308.385 255.164 296.488 257.588 Q 284.591 260.011 268.239 259.792 Q 251.887 259.573 244.247 249.974 Q 236.607 240.375 241.892 214.395 Q 247.178 188.416 248.085 152.352 Q 248.993 116.288 221.505 115.134 Q 194.016 113.981 191.878 110.672 Q 189.739 107.362 186.817 85.968 Q 183.895 64.573 190.096 55.105 Q 196.296 45.637 247.301 42.698 Q 298.306 39.760 319.109 39.355 Q 339.911 38.951 355.695 40.918 Q 371.479 42.884 372.962 46.340 Q 374.446 49.795 372.518 73.560 Q 370.591 97.326 366.050 105.136 Q 361.510 112.947 346.009 115.138 Q 330.509 117.329 313.065 116.447 Q 295.621 115.565 294.965 115.092 Z"></path>
    <path id="STROKE_51B18BB4-F887-46A9-A659-5A165EAD37E2" opacity="1.000" fill="#ffce2b" stroke="#ffce2b" stroke-width="0.500" stroke-opacity="1.000" stroke-linecap="round" stroke-linejoin="round" d="M 338.614 153.292 Q 338.798 154.620 336.347 165.786 Q 333.897 176.951 334.062 195.501 Q 334.227 214.051 332.880 235.778 Q 331.532 257.505 338.306 261.755 Q 345.079 266.006 354.711 266.377 Q 364.342 266.749 370.877 263.804 Q 377.413 260.858 377.053 242.354 Q 376.694 223.850 387.127 224.739 Q 397.560 225.629 398.147 241.767 Q 398.734 257.906 407.507 260.362 Q 416.280 262.818 425.046 258.551 Q 433.811 254.284 436.365 248.932 Q 438.919 243.580 441.410 224.836 Q 443.901 206.092 444.596 187.350 Q 445.292 168.608 442.576 158.767 Q 439.861 148.926 435.830 145.710 Q 431.800 142.494 416.626 143.547 Q 401.452 144.601 397.382 150.382 Q 393.313 156.163 393.047 168.182 Q 392.780 180.200 390.178 185.507 Q 387.576 190.813 380.466 189.875 Q 373.357 188.936 374.040 170.149 Q 374.724 151.361 371.784 147.525 Q 368.845 143.689 353.638 147.827 Q 338.431 151.964 338.614 153.292 Z"></path>
    <path id="STROKE_EEC8815A-5963-460C-B133-6005B1DE44F3" opacity="1.000" fill="#ffce2b" stroke="#ffce2b" stroke-width="0.500" stroke-opacity="1.000" stroke-linecap="round" stroke-linejoin="round" d="M 487.594 149.531 Q 489.910 148.673 481.161 168.042 Q 472.411 187.411 463.100 214.723 Q 453.789 242.035 454.937 249.276 Q 456.085 256.517 475.337 257.779 Q 494.589 259.041 501.302 252.693 Q 508.016 246.344 513.689 231.664 Q 519.362 216.983 526.666 217.831 Q 533.969 218.678 537.540 234.859 Q 541.112 251.040 550.733 252.831 Q 560.354 254.622 568.174 251.011 Q 575.995 247.400 574.834 228.615 Q 573.674 209.829 560.565 178.984 Q 547.455 148.138 539.252 144.836 Q 531.048 141.533 520.957 142.162 Q 510.865 142.792 498.071 146.590 Q 485.278 150.388 487.594 149.531 Z"></path>
    <path id="STROKE_8064D6D9-78F9-468D-AA20-8226684A8706" opacity="1.000" fill="#ffce2b" stroke="#ffce2b" stroke-width="0.500" stroke-opacity="1.000" stroke-linecap="round" stroke-linejoin="round" d="M 598.461 146.101 Q 599.885 150.830 597.815 166.262 Q 595.745 181.694 596.154 211.934 Q 596.562 242.174 597.513 246.904 Q 598.464 251.634 604.731 258.914 Q 610.998 266.195 618.869 264.631 Q 626.740 263.067 628.531 259.044 Q 630.322 255.020 629.834 241.529 Q 629.347 228.038 632.666 223.394 Q 635.984 218.751 639.494 221.968 Q 643.003 225.185 649.459 239.752 Q 655.916 254.320 664.266 257.959 Q 672.615 261.598 687.165 255.424 Q 701.714 249.249 702.234 212.767 Q 702.753 176.285 700.517 161.330 Q 698.281 146.376 695.340 141.266 Q 692.399 136.157 683.626 133.846 Q 674.854 131.535 672.348 136.742 Q 669.843 141.949 667.673 154.169 Q 665.502 166.390 664.657 181.811 Q 663.813 197.233 660.267 205.097 Q 656.721 212.961 653.550 208.088 Q 650.379 203.215 643.332 180.979 Q 636.284 158.742 630.062 147.350 Q 623.839 135.957 610.438 138.664 Q 597.037 141.371 598.461 146.101 Z"></path>
    <path id="STROKE_C19E5927-60DB-49D4-BE13-C31E5E2CF90E" opacity="1.000" fill="#ffce2b" stroke="#ffce2b" stroke-width="0.500" stroke-opacity="1.000" stroke-linecap="round" stroke-linejoin="round" d="M 721.310 140.484 Q 720.835 138.965 718.245 155.862 Q 715.656 172.759 717.066 210.049 Q 718.476 247.339 723.977 252.637 Q 729.478 257.935 740.622 254.657 Q 751.766 251.379 752.502 235.949 Q 753.237 220.518 756.560 219.669 Q 759.883 218.819 772.225 235.700 Q 784.568 252.581 796.417 250.622 Q 808.266 248.662 813.611 244.308 Q 818.956 239.953 816.203 229.540 Q 813.450 219.126 800.155 207.313 Q 786.860 195.500 788.370 189.721 Q 789.880 183.943 801.147 170.166 Q 812.413 156.389 817.765 147.431 Q 823.117 138.473 818.708 132.474 Q 814.298 126.474 802.580 126.859 Q 790.863 127.245 774.727 147.568 Q 758.591 167.891 755.365 168.086 Q 752.138 168.280 749.187 153.327 Q 746.235 138.374 739.271 137.153 Q 732.307 135.932 727.046 138.967 Q 721.785 142.002 721.310 140.484 Z"></path>
    <path id="STROKE_3D7114EF-EE00-4DAE-89BF-C1ADEB9FC183" opacity="1.000" fill="#ffce2b" stroke="#ffce2b" stroke-width="0.500" stroke-opacity="1.000" stroke-linecap="round" stroke-linejoin="round" d="M 399.268 314.602 Q 398.504 315.167 397.658 318.061 Q 396.812 320.955 395.349 415.554 Q 393.885 510.154 395.512 523.216 Q 397.139 536.279 404.268 555.340 Q 411.397 574.401 423.356 584.996 Q 435.316 595.591 453.666 604.233 Q 472.016 612.874 506.482 616.104 Q 540.947 619.333 564.257 614.905 Q 587.566 610.476 599.506 602.649 Q 611.446 594.821 618.968 584.169 Q 626.489 573.516 636.221 542.319 Q 645.952 511.122 649.747 463.746 Q 653.542 416.370 653.368 390.433 Q 653.195 364.496 647.630 344.014 Q 642.064 323.532 633.142 317.291 Q 624.220 311.051 606.872 310.214 Q 589.525 309.377 579.489 316.393 Q 569.453 323.409 564.527 334.304 Q 559.602 345.200 554.689 401.992 Q 549.776 458.785 536.761 482.035 Q 523.746 505.284 513.656 507.378 Q 503.566 509.473 497.192 493.440 Q 490.819 477.408 491.084 407.928 Q 491.350 338.449 487.782 326.053 Q 484.215 313.656 470.649 309.695 Q 457.083 305.734 432.484 306.470 Q 407.885 307.206 403.958 310.622 Q 400.032 314.037 399.268 314.602 Z"></path>
    <path id="STROKE_E7527EC3-B882-4926-9054-0C6AE36EC244" opacity="1.000" fill="#ffffff" stroke="#ffffff" stroke-width="0.500" stroke-opacity="1.000" stroke-linecap="round" stroke-linejoin="round" d="M 518.997 170.558 Q 518.854 172.787 517.665 172.597 Q 516.476 172.408 514.212 175.958 Q 511.947 179.509 511.286 184.768 Q 510.624 190.027 511.818 194.329 Q 513.011 198.631 515.475 200.193 Q 517.939 201.755 520.111 202.463 Q 522.283 203.170 524.467 203.168 Q 526.650 203.165 528.977 201.170 Q 531.304 199.175 531.676 195.199 Q 532.047 191.223 531.244 188.295 Q 530.440 185.366 528.678 182.056 Q 526.915 178.747 522.980 174.111 Q 519.045 169.475 519.093 168.902 Q 519.141 168.329 518.997 170.558 Z"></path>
  </g>
  <g id="Layer_Copy_2" opacity="1.000">
    <path id="STROKE_D3C57217-1376-4F6B-85FA-87A7CC6E3C84" opacity="1.000" fill="none" stroke="#784e4b" stroke-width="1.293" stroke-opacity="1.000" stroke-linecap="round" stroke-linejoin="round" d="M 249.062 111.944 Q 248.759 135.122 248.272 147.686 Q 247.786 160.250 246.909 174.930 Q 246.032 189.610 244.846 201.923 Q 243.659 214.236 241.602 227.166 Q 239.545 240.096 239.528 244.359 Q 239.512 248.622 240.377 250.211 Q 241.243 251.801 244.900 252.825 Q 248.557 253.849 254.776 253.955 Q 260.996 254.061 268.865 254.942 Q 276.735 255.822 283.261 255.676 Q 289.787 255.530 293.443 255.167 Q 297.098 254.804 299.975 253.966 Q 302.852 253.127 303.992 251.145 Q 305.132 249.162 305.290 243.453 Q 305.449 237.744 304.380 226.938 Q 303.312 216.133 303.223 212.984 Q 303.134 209.835 301.725 194.793 Q 300.317 179.752 299.187 171.254 Q 298.057 162.757 297.075 153.177 Q 296.094 143.597 294.403 130.864 Q 292.711 118.131 292.622 115.545 Q 292.534 112.958 293.761 111.982 Q 294.988 111.006 298.173 111.003 Q 301.357 111.000 311.177 111.932 Q 320.996 112.864 340.889 112.762 Q 360.782 112.661 363.378 110.291 Q 365.975 107.921 367.015 92.625 Q 368.056 77.329 368.048 69.832 Q 368.040 62.334 367.814 58.634 Q 367.589 54.934 366.692 50.892 Q 365.795 46.849 363.787 44.822 Q 361.778 42.794 359.657 42.100 Q 357.535 41.407 353.572 40.988 Q 349.608 40.569 343.946 40.714 Q 338.284 40.859 332.001 41.734 Q 325.719 42.608 320.364 43.112 Q 315.009 43.615 303.407 44.046 Q 291.804 44.476 284.549 44.483 Q 277.295 44.491 267.334 44.143 Q 257.372 43.795 243.419 43.028 Q 229.466 42.261 222.911 42.268 Q 216.356 42.275 211.723 42.671 Q 207.089 43.067 200.728 44.187 Q 194.367 45.308 191.077 46.956 Q 187.787 48.603 186.534 51.973 Q 185.281 55.343 184.949 58.658 Q 184.617 61.973 184.625 69.165 Q 184.632 76.358 185.787 87.886 Q 186.942 99.415 187.818 103.955 Q 188.694 108.496 189.388 110.139 Q 190.083 111.782 191.534 113.227 Q 192.985 114.671 196.921 116.257 Q 200.857 117.844 206.833 117.612 Q 212.809 117.381 218.528 116.566 Q 224.246 115.752 226.224 115.193 Q 228.201 114.634 233.863 114.071 Q 239.524 113.508 244.437 113.502 Q 249.350 113.497 249.378 112.972 L 249.406 112.447 "></path>
    <path id="STROKE_F55F2151-E411-45A5-9F31-A6454CCA7C0D" opacity="1.000" fill="none" stroke="#784e4b" stroke-width="1.432" stroke-opacity="1.000" stroke-linecap="round" stroke-linejoin="round" d="M 368.801 147.194 Q 353.736 147.595 349.131 148.355 Q 344.526 149.115 342.827 149.117 Q 341.127 149.119 339.622 149.956 Q 338.116 150.793 337.389 152.518 Q 336.663 154.243 336.032 158.427 Q 335.401 162.610 335.183 172.608 Q 334.965 182.607 334.168 191.578 Q 333.371 200.549 333.127 206.788 Q 332.884 213.027 332.032 223.814 Q 331.179 234.600 330.570 239.276 Q 329.961 243.952 330.188 248.884 Q 330.414 253.816 331.616 255.683 Q 332.817 257.551 335.946 258.496 Q 339.074 259.440 342.281 259.881 Q 345.487 260.322 354.999 260.617 Q 364.510 260.912 366.159 260.686 Q 367.808 260.459 369.342 259.376 Q 370.876 258.292 371.575 256.979 Q 372.273 255.667 372.606 252.630 Q 372.938 249.593 372.784 239.482 Q 372.631 229.372 373.991 225.665 Q 375.350 221.957 376.243 221.678 Q 377.135 221.398 387.125 221.971 Q 397.115 222.544 397.394 223.519 Q 397.674 224.493 397.768 232.349 Q 397.862 240.205 397.198 246.643 Q 396.533 253.081 397.763 254.804 Q 398.993 256.527 406.949 257.440 Q 414.904 258.352 422.016 257.927 Q 429.127 257.502 431.782 256.021 Q 434.436 254.540 435.298 252.338 Q 436.159 250.136 436.350 247.828 Q 436.540 245.519 436.598 219.916 Q 436.657 194.312 437.366 182.776 Q 438.074 171.240 438.014 161.825 Q 437.954 152.411 436.444 149.071 Q 434.934 145.731 433.005 144.506 Q 431.076 143.282 429.376 142.979 Q 427.676 142.675 418.687 143.017 Q 409.697 143.358 406.271 143.892 Q 402.844 144.426 401.395 145.263 Q 399.947 146.100 398.942 147.884 Q 397.937 149.669 397.297 152.540 Q 396.658 155.411 396.359 163.407 Q 396.061 171.403 395.423 175.918 Q 394.785 180.433 394.788 182.993 Q 394.791 185.553 394.292 186.415 Q 393.793 187.278 384.140 188.542 Q 374.488 189.805 374.008 188.831 Q 373.529 187.857 373.526 185.045 Q 373.523 182.234 374.464 173.959 Q 375.405 165.684 375.511 158.218 Q 375.617 150.753 374.501 148.666 Q 373.385 146.578 370.371 146.137 L 367.357 145.696 "></path>
    <path id="STROKE_EEE2C0E7-A4EE-44E0-8586-3DC15757FFCF" opacity="1.000" fill="none" stroke="#784e4b" stroke-width="1.427" stroke-opacity="1.000" stroke-linecap="round" stroke-linejoin="round" d="M 477.713 179.498 Q 476.488 182.788 473.793 193.683 Q 471.099 204.579 468.094 213.027 Q 465.090 221.476 461.973 231.087 Q 458.856 240.697 457.047 245.406 Q 455.239 250.116 455.048 251.899 Q 454.857 253.683 456.250 254.881 Q 457.644 256.079 463.114 256.909 Q 468.585 257.738 475.647 257.982 Q 482.709 258.226 488.093 257.915 Q 493.476 257.604 495.538 255.760 Q 497.599 253.916 498.739 251.494 Q 499.879 249.072 500.661 246.035 Q 501.444 242.997 502.799 235.027 Q 504.154 227.057 505.016 225.160 Q 505.878 223.264 507.219 221.843 Q 508.560 220.423 511.400 219.140 Q 514.241 217.857 520.103 217.626 Q 525.965 217.394 529.143 217.894 Q 532.321 218.394 533.329 219.282 Q 534.336 220.170 535.599 225.379 Q 536.861 230.589 537.173 235.740 Q 537.486 240.892 537.932 243.735 Q 538.377 246.578 539.273 249.501 Q 540.169 252.424 543.240 253.588 Q 546.312 254.753 552.703 254.607 Q 559.093 254.460 562.999 254.681 Q 566.905 254.902 571.230 253.339 Q 575.556 251.776 577.424 249.268 Q 579.292 246.759 579.676 244.890 Q 580.059 243.021 580.056 240.011 Q 580.053 237.001 579.385 233.885 Q 578.718 230.769 577.120 225.753 Q 575.523 220.737 571.715 212.413 Q 567.908 204.090 565.221 195.315 Q 562.534 186.541 560.184 179.887 Q 557.835 173.233 556.794 168.082 Q 555.754 162.931 552.903 154.827 Q 550.052 146.722 548.094 144.608 Q 546.135 142.495 541.172 142.136 Q 536.209 141.777 533.138 141.309 Q 530.067 140.841 514.830 141.415 Q 499.593 141.988 495.831 142.629 Q 492.069 143.270 488.973 146.198 Q 485.877 149.125 484.289 152.667 Q 482.700 156.208 481.427 161.056 Q 480.154 165.904 479.622 168.968 Q 479.090 172.031 477.616 176.521 L 476.143 181.010 "></path>
    <path id="STROKE_FFA3D3B1-3660-4118-AB6D-823AA0485C6F" opacity="1.000" fill="none" stroke="#784e4b" stroke-width="1.433" stroke-opacity="1.000" stroke-linecap="round" stroke-linejoin="round" d="M 513.482 176.183 Q 512.817 181.753 512.006 184.426 Q 511.195 187.099 510.143 191.615 Q 509.091 196.130 509.007 197.523 Q 508.922 198.915 509.815 199.305 Q 510.708 199.695 514.058 200.500 Q 517.408 201.305 520.114 201.442 Q 522.820 201.578 526.054 200.879 Q 529.288 200.179 531.329 199.170 Q 533.370 198.161 533.754 196.549 Q 534.138 194.936 533.722 193.432 Q 533.307 191.927 531.654 188.946 Q 530.001 185.965 528.434 182.288 Q 526.866 178.610 526.056 176.105 Q 525.247 173.600 524.160 171.678 Q 523.072 169.757 522.315 169.174 Q 521.557 168.591 520.079 168.957 Q 518.602 169.322 517.068 170.325 Q 515.534 171.329 513.751 174.003 Q 511.969 176.677 511.941 177.266 L 511.913 177.855 "></path>
    <path id="STROKE_9EA50BFD-D6F0-475B-930C-89067790BD5B" opacity="1.000" fill="none" stroke="#784e4b" stroke-width="1.410" stroke-opacity="1.000" stroke-linecap="round" stroke-linejoin="round" d="M 671.021 141.220 Q 669.659 143.587 669.266 147.149 Q 668.874 150.711 668.878 155.034 Q 668.883 159.357 668.203 170.223 Q 667.523 181.089 667.425 184.969 Q 667.328 188.849 666.824 191.693 Q 666.320 194.536 665.929 200.007 Q 665.538 205.478 664.461 207.277 Q 663.384 209.077 661.549 208.470 Q 659.713 207.864 657.432 204.767 Q 655.151 201.671 652.443 196.245 Q 649.735 190.819 648.329 187.258 Q 646.924 183.698 645.372 181.251 Q 643.820 178.804 641.038 173.018 Q 638.256 167.232 637.285 164.349 Q 636.314 161.466 634.216 157.153 Q 632.118 152.839 628.433 147.732 Q 624.748 142.625 622.662 140.870 Q 620.576 139.116 618.159 138.683 Q 615.743 138.249 611.668 139.153 Q 607.593 140.056 604.717 141.069 Q 601.841 142.082 600.147 145.252 Q 598.454 148.421 597.556 153.748 Q 596.658 159.074 596.412 161.841 Q 596.166 164.608 595.816 173.675 Q 595.466 182.743 595.472 189.037 Q 595.479 195.331 595.927 208.755 Q 596.375 222.179 595.984 227.719 Q 595.593 233.260 595.566 242.251 Q 595.539 251.242 596.804 253.219 Q 598.070 255.195 602.609 256.705 Q 607.147 258.215 613.990 258.637 Q 620.833 259.058 623.322 257.831 Q 625.810 256.604 626.675 254.701 Q 627.540 252.799 627.931 247.293 Q 628.321 241.787 628.316 237.250 Q 628.312 232.713 627.833 225.520 Q 627.356 218.328 628.000 217.034 Q 628.644 215.740 631.097 215.661 Q 633.550 215.582 636.726 219.037 Q 639.902 222.492 643.365 227.592 Q 646.829 232.693 651.014 240.214 Q 655.200 247.734 657.010 250.568 Q 658.821 253.402 661.202 255.093 Q 663.583 256.785 666.608 257.536 Q 669.634 258.287 676.947 258.355 Q 684.260 258.423 687.615 257.265 Q 690.971 256.106 692.767 254.451 Q 694.564 252.796 695.788 250.637 Q 697.012 248.478 697.802 246.098 Q 698.593 243.718 699.123 238.758 Q 699.652 233.799 699.643 225.630 Q 699.635 217.462 699.342 210.947 Q 699.049 204.433 698.778 183.746 Q 698.507 163.060 697.883 157.555 Q 697.260 152.050 697.256 148.454 Q 697.252 144.857 695.884 142.016 Q 694.516 139.175 692.422 138.168 Q 690.327 137.160 687.376 136.409 Q 684.424 135.659 679.417 135.844 Q 674.409 136.029 672.355 137.905 Q 670.300 139.782 669.979 141.110 L 669.658 142.438 "></path>
    <path id="STROKE_789DFAF0-50B1-4448-A795-D6F67C5178D5" opacity="1.000" fill="none" stroke="#784e4b" stroke-width="1.416" stroke-opacity="1.000" stroke-linecap="round" stroke-linejoin="round" d="M 751.480 166.102 Q 751.821 157.677 750.701 153.148 Q 749.580 148.619 748.175 145.882 Q 746.771 143.145 744.463 140.630 Q 742.155 138.114 740.494 137.113 Q 738.833 136.112 735.190 135.791 Q 731.547 135.470 728.375 135.542 Q 725.202 135.615 723.193 136.551 Q 721.184 137.487 719.812 139.577 Q 718.440 141.667 717.404 147.568 Q 716.369 153.469 716.013 157.605 Q 715.658 161.741 715.675 178.043 Q 715.693 194.345 715.808 207.403 Q 715.923 220.460 716.259 223.738 Q 716.594 227.016 716.927 235.717 Q 717.259 244.417 717.944 247.660 Q 718.630 250.903 720.007 253.309 Q 721.384 255.714 725.202 256.284 Q 729.020 256.854 731.823 256.132 Q 734.626 255.409 737.798 255.157 Q 740.970 254.905 744.251 253.788 Q 747.533 252.671 750.021 250.648 Q 752.509 248.626 753.115 246.682 Q 753.722 244.738 753.715 238.409 Q 753.708 232.081 753.452 225.532 Q 753.196 218.982 753.802 216.319 Q 754.408 213.655 755.560 213.115 Q 756.712 212.574 759.094 214.840 Q 761.475 217.106 763.897 221.855 Q 766.318 226.604 767.289 229.010 Q 768.259 231.415 770.569 235.625 Q 772.879 239.834 776.851 245.405 Q 780.822 250.975 783.424 252.266 Q 786.026 253.556 789.189 253.553 Q 792.352 253.549 797.616 252.361 Q 802.880 251.173 805.186 251.129 Q 807.491 251.085 810.045 250.259 Q 812.598 249.433 814.874 247.736 Q 817.150 246.040 817.684 244.635 Q 818.217 243.230 818.075 239.848 Q 817.933 236.467 815.834 230.970 Q 813.735 225.474 811.240 221.009 Q 808.745 216.544 807.020 215.363 Q 805.294 214.182 801.361 210.299 Q 797.429 206.416 795.297 204.835 Q 793.165 203.253 790.423 200.379 Q 787.681 197.505 786.996 194.843 Q 786.311 192.181 788.327 189.481 Q 790.344 186.782 793.836 183.645 Q 797.327 180.508 803.120 173.558 Q 808.914 166.608 812.155 162.109 Q 815.396 157.610 817.080 154.440 Q 818.764 151.271 819.813 148.392 Q 820.861 145.514 821.327 141.267 Q 821.792 137.020 820.959 134.040 Q 820.126 131.060 819.073 129.691 Q 818.021 128.323 814.884 126.777 Q 811.747 125.231 802.672 125.061 Q 793.598 124.891 789.884 127.343 Q 786.170 129.796 784.264 132.350 Q 782.358 134.904 779.624 139.693 Q 776.891 144.482 773.551 151.720 Q 770.211 158.958 768.802 161.332 Q 767.394 163.706 764.879 166.122 Q 762.364 168.538 759.045 169.510 Q 755.727 170.482 754.611 170.373 Q 753.495 170.263 752.340 168.508 Q 751.186 166.752 751.182 163.294 L 751.178 159.836 "></path>
    <path id="STROKE_CABA2EBE-D6E6-47D9-BB88-D0A7F8F48999" opacity="1.000" fill="none" stroke="#784e4b" stroke-width="1.099" stroke-opacity="1.000" stroke-linecap="round" stroke-linejoin="round" d="M 396.968 320.216 Q 396.421 332.131 396.400 355.348 Q 396.378 378.566 395.721 396.054 Q 395.064 413.542 395.082 430.496 Q 395.100 447.451 394.968 454.719 Q 394.836 461.986 394.853 477.980 Q 394.870 493.974 395.700 507.835 Q 396.531 521.696 397.635 530.465 Q 398.739 539.234 399.886 545.050 Q 401.034 550.866 402.998 557.354 Q 404.961 563.842 407.644 568.023 Q 410.327 572.205 413.837 576.245 Q 417.347 580.286 425.182 587.545 Q 433.016 594.804 437.713 598.031 Q 442.410 601.258 448.690 603.837 Q 454.971 606.416 460.481 607.729 Q 465.991 609.042 473.634 611.401 Q 481.276 613.760 485.832 615.432 Q 490.388 617.104 493.300 617.599 Q 496.212 618.094 506.590 618.904 Q 516.968 619.714 522.884 619.751 Q 528.801 619.789 533.903 620.237 Q 539.004 620.686 545.969 620.452 Q 552.933 620.217 565.219 619.112 Q 577.505 618.007 584.503 616.139 Q 591.500 614.271 595.004 612.494 Q 598.508 610.717 603.279 606.764 Q 608.050 602.811 614.375 593.484 Q 620.701 584.157 624.107 578.065 Q 627.513 571.973 629.232 567.385 Q 630.951 562.798 634.348 548.844 Q 637.746 534.891 638.522 530.793 Q 639.298 526.696 640.603 516.291 Q 641.908 505.886 642.213 497.116 Q 642.518 488.346 643.011 481.619 Q 643.505 474.893 643.493 463.765 Q 643.481 452.636 643.208 447.134 Q 642.934 441.631 642.921 430.048 Q 642.909 418.466 643.255 404.787 Q 643.602 391.107 643.592 381.473 Q 643.581 371.838 643.066 358.256 Q 642.551 344.673 642.091 339.721 Q 641.632 334.769 639.715 328.185 Q 637.798 321.601 634.975 317.970 Q 632.153 314.339 629.006 312.569 Q 625.860 310.800 619.896 309.670 Q 613.931 308.541 604.195 308.412 Q 594.458 308.282 584.351 310.748 Q 574.245 313.213 571.521 314.849 Q 568.798 316.486 566.251 320.445 Q 563.705 324.405 562.894 328.904 Q 562.084 333.404 562.042 337.632 Q 562.000 341.859 561.325 353.259 Q 560.650 364.659 559.982 371.613 Q 559.314 378.566 559.229 385.974 Q 559.143 393.381 557.564 408.791 Q 555.985 424.201 554.088 436.380 Q 552.191 448.559 551.013 457.731 Q 549.834 466.904 548.710 471.684 Q 547.585 476.463 545.902 481.461 Q 544.218 486.459 542.812 489.099 Q 541.406 491.738 538.683 494.370 Q 535.961 497.002 531.503 499.872 Q 527.045 502.742 520.131 506.340 Q 513.217 509.937 507.615 510.257 Q 502.014 510.578 499.787 508.903 Q 497.561 507.228 495.917 505.046 Q 494.272 502.864 492.718 498.551 Q 491.165 494.238 489.935 487.382 Q 488.704 480.526 487.775 471.705 Q 486.845 462.884 486.563 448.987 Q 486.280 435.090 485.404 421.866 Q 484.528 408.642 484.467 395.557 Q 484.407 382.472 484.945 373.877 Q 485.483 365.281 485.371 347.200 Q 485.258 329.118 482.748 323.033 Q 480.237 316.947 476.962 314.540 Q 473.687 312.133 469.493 310.687 Q 465.298 309.241 458.159 309.066 Q 451.019 308.890 444.461 308.032 Q 437.903 307.174 431.393 307.181 Q 424.882 307.188 416.509 308.149 Q 408.137 309.110 404.958 310.162 Q 401.780 311.213 399.953 312.901 Q 398.126 314.589 397.862 317.585 L 397.597 320.582 "></path>
  </g>
</svg>