<?xml version="1.0" encoding="UTF-8"?>
<svg xmlns="http://www.w3.org/2000/svg" xmlns:xlink="http://www.w3.org/1999/xlink" width="4.650895in" height="2.962538in" version="1.1" viewBox="244.960149 194.311712 613.918202 391.055043">
  <!--
	Exported with Concepts: Smarter Sketching
	Version: 414
	iOS Version: 11.0
	https://concepts.tophatch.com/
	-->
  <title>Untitled</title>
  <desc>Drawing exported from Concepts: Smarter Sketching</desc>
  <g id="Pen" opacity="1.000">
    <path id="STROKE_DCFCCF13-5700-4233-8897-3F8437E17D83" opacity="1.000" fill="none" stroke="#000000" stroke-width="3.127" stroke-opacity="1.000" stroke-linecap="round" stroke-linejoin="round" d="M 383.217 287.358 Q 392.889 277.966 396.673 275.186 Q 400.456 272.405 400.982 265.190 Q 401.508 257.974 400.948 255.855 Q 400.389 253.736 396.045 248.570 Q 391.701 243.403 389.283 241.851 Q 386.865 240.298 383.217 239.204 Q 379.569 238.109 372.443 237.848 Q 365.316 237.587 360.404 238.644 Q 355.492 239.700 348.467 242.251 Q 341.443 244.803 334.248 248.474 Q 327.054 252.146 314.387 261.283 Q 301.721 270.420 297.878 274.359 Q 294.035 278.297 290.921 282.331 Q 287.807 286.366 284.821 291.430 Q 281.835 296.495 279.154 303.183 Q 276.473 309.870 274.445 317.149 Q 272.418 324.428 271.654 329.328 Q 270.891 334.227 270.891 340.915 Q 270.891 347.602 272.587 355.117 Q 274.284 362.631 276.566 366.933 Q 278.848 371.234 281.640 374.282 Q 284.431 377.330 294.807 383.483 Q 305.182 389.636 308.126 390.762 Q 311.070 391.888 322.744 394.338 Q 334.418 396.788 339.890 396.858 Q 345.362 396.928 349.239 396.228 Q 353.116 395.528 358.385 393.676 Q 363.653 391.824 368.294 388.713 Q 372.935 385.602 379.102 380.104 Q 385.270 374.606 387.620 371.667 Q 389.970 368.727 391.531 365.348 Q 393.092 361.970 385.270 352.903 Q 377.448 343.835 376.091 343.536 Q 374.733 343.237 370.152 346.349 Q 365.571 349.460 360.930 350.879 Q 356.289 352.298 347.839 353.030 Q 339.389 353.762 333.782 352.273 Q 328.174 350.784 324.500 348.398 Q 320.827 346.011 319.164 344.096 Q 317.501 342.181 315.982 338.605 Q 314.464 335.029 313.997 328.240 Q 313.531 321.451 314.761 317.047 Q 315.991 312.644 317.611 309.170 Q 319.232 305.696 321.913 301.757 Q 324.594 297.819 329.039 293.581 Q 333.485 289.343 340.543 285.507 Q 347.602 281.670 354.100 280.181 Q 360.599 278.692 363.484 278.660 Q 366.368 278.628 372.969 281.307 Q 379.569 283.986 380.562 285.545 L 381.554 287.104 "></path>
    <path id="STROKE_05972A66-8D1B-4C43-B129-44332267BB70" opacity="1.000" fill="none" stroke="#000000" stroke-width="3.163" stroke-opacity="1.000" stroke-linecap="round" stroke-linejoin="round" d="M 475.573 280.143 Q 467.683 275.714 464.501 275.682 Q 461.320 275.650 456.077 277.139 Q 450.834 278.628 445.998 281.937 Q 441.162 285.246 436.454 290.406 Q 431.745 295.566 428.428 300.536 Q 425.111 305.505 422.794 309.870 Q 420.478 314.235 419.019 318.969 Q 417.560 323.703 416.992 331.154 Q 416.423 338.605 417.221 341.844 Q 418.018 345.082 421.301 350.186 Q 424.585 355.289 428.063 357.567 Q 431.541 359.844 435.223 361.340 Q 438.905 362.835 444.242 363.923 Q 449.578 365.011 454.516 365.011 Q 459.453 365.011 464.993 362.962 Q 470.533 360.913 475.938 356.708 Q 481.342 352.502 485.753 348.003 Q 490.165 343.504 492.685 338.701 Q 495.204 333.896 495.934 330.091 Q 496.664 326.286 496.664 319.236 Q 496.664 312.186 495.629 307.090 Q 494.594 301.993 492.676 297.889 Q 490.759 293.785 488.341 290.705 Q 485.923 287.625 481.215 283.986 L 476.506 280.346 "></path>
    <path id="STROKE_E46CACB1-9D9B-4C76-83DB-3A4FF020E5A2" opacity="1.000" fill="none" stroke="#000000" stroke-width="3.163" stroke-opacity="1.000" stroke-linecap="round" stroke-linejoin="round" d="M 461.320 304.245 Q 457.468 303.914 455.186 304.875 Q 452.904 305.836 450.842 308.082 Q 448.781 310.328 447.491 312.880 Q 446.202 315.431 445.905 319.007 Q 445.608 322.583 446.770 325.033 Q 447.932 327.483 449.519 328.972 Q 451.105 330.461 453.761 331.714 Q 456.416 332.967 460.293 333.235 Q 464.170 333.502 465.994 332.147 Q 467.818 330.791 469.244 328.673 Q 470.669 326.554 471.263 322.844 Q 471.857 319.135 470.567 315.826 Q 469.278 312.517 466.656 309.075 Q 464.035 305.632 462.474 304.869 L 460.913 304.105 "></path>
    <path id="STROKE_1E13D697-7F5D-4338-AE6E-CB7945306269" opacity="1.000" fill="none" stroke="#000000" stroke-width="3.158" stroke-opacity="1.000" stroke-linecap="round" stroke-linejoin="round" d="M 512.970 357.796 Q 512.240 351.051 509.983 337.943 Q 507.727 324.836 506.963 317.487 Q 506.200 310.137 506.234 307.357 Q 506.267 304.576 507.591 299.409 Q 508.914 294.243 510.509 290.902 Q 512.104 287.562 514.522 284.253 Q 516.940 280.944 519.231 278.959 Q 521.521 276.974 524.304 276.376 Q 527.087 275.778 529.641 278.425 Q 532.194 281.072 534.315 290.342 Q 536.436 299.613 537.200 305.174 Q 537.963 310.735 538.591 305.639 Q 539.219 300.542 540.712 294.847 Q 542.205 289.152 544.199 284.648 Q 546.193 280.143 549.467 276.172 Q 552.742 272.202 556.959 269.656 Q 561.175 267.111 564.424 266.246 Q 567.674 265.381 572.408 265.215 Q 577.142 265.050 580.196 266.081 Q 583.250 267.111 585.439 268.664 Q 587.628 270.216 588.654 272.965 Q 589.681 275.714 589.749 283.820 Q 589.817 291.927 591.174 303.615 Q 592.532 315.304 592.532 324.505 Q 592.532 333.706 592.065 337.975 Q 591.598 342.245 591.768 347.208 Q 591.938 352.171 583.386 352.603 Q 574.834 353.036 573.570 352.304 Q 572.306 351.573 572.510 344.389 Q 572.713 337.205 571.517 328.933 Q 570.321 320.662 568.293 315.533 Q 566.266 310.405 565.044 309.342 Q 563.822 308.279 561.667 307.980 Q 559.512 307.681 557.519 309.800 Q 555.525 311.919 554.498 313.974 Q 553.472 316.029 550.825 324.931 Q 548.178 333.833 545.488 335.093 Q 542.799 336.353 540.118 336.054 Q 537.437 335.754 535.113 332.745 Q 532.788 329.735 531.660 327.451 Q 530.531 325.167 529.242 320.331 Q 527.952 315.495 527.189 315.069 Q 526.425 314.642 525.560 317.124 Q 524.694 319.605 524.830 328.870 Q 524.966 338.134 527.817 348.862 Q 530.667 359.590 527.486 359.552 Q 524.304 359.514 519.630 358.623 L 514.955 357.732 "></path>
    <path id="STROKE_74102C76-8267-425D-93EB-BF406FCFE800" opacity="1.000" fill="none" stroke="#000000" stroke-width="2.890" stroke-opacity="1.000" stroke-linecap="round" stroke-linejoin="round" d="M 616.134 276.108 Q 614.335 290.603 612.884 307.389 Q 611.434 324.174 610.899 328.113 Q 610.365 332.051 608.872 338.936 Q 607.378 345.821 607.014 351.382 Q 606.649 356.943 609.898 355.053 Q 613.147 353.163 618.450 352.336 Q 623.752 351.509 630.879 351.509 Q 638.005 351.509 638.972 349.657 Q 639.940 347.806 639.176 342.709 Q 638.412 337.612 638.277 326.789 Q 638.141 315.966 638.709 310.239 Q 639.278 304.513 640.635 286.805 Q 641.993 269.097 637.148 271.145 Q 632.304 273.194 627.366 274.187 Q 622.429 275.180 619.247 276.637 L 616.066 278.094 "></path>
    <path id="STROKE_FF767E0A-A182-4A6E-971E-031D8AC38ED5" opacity="1.000" fill="none" stroke="#000000" stroke-width="3.163" stroke-opacity="1.000" stroke-linecap="round" stroke-linejoin="round" d="M 635.494 225.002 Q 634.374 221.820 633.339 221.031 Q 632.304 220.242 630.752 220.369 Q 629.199 220.497 626.476 222.056 Q 623.752 223.614 622.166 225.600 Q 620.579 227.585 619.086 230.499 Q 617.593 233.413 617.228 237.944 Q 616.863 242.474 617.525 244.065 Q 618.187 245.656 620.147 248.271 Q 622.106 250.886 623.566 251.783 Q 625.025 252.680 628.206 252.877 Q 631.388 253.075 633.908 251.713 Q 636.427 250.351 638.251 248.169 Q 640.075 245.986 640.533 243.238 Q 640.992 240.489 639.134 234.266 Q 637.276 228.043 635.486 225.231 L 633.695 222.418 "></path>
    <path id="STROKE_B95BABD0-815E-4FF5-8A43-2DAEC7A66610" opacity="1.000" fill="none" stroke="#000000" stroke-width="3.127" stroke-opacity="1.000" stroke-linecap="round" stroke-linejoin="round" d="M 663.745 273.920 Q 663.202 273.856 662.642 285.577 Q 662.083 297.297 658.239 321.457 Q 654.396 345.617 653.565 352.801 Q 652.733 359.984 658.664 359.055 Q 664.594 358.126 668.479 358.095 Q 672.365 358.063 673.188 356.905 Q 674.011 355.747 674.147 346.775 Q 674.282 337.803 674.749 333.604 Q 675.216 329.404 676.904 322.055 Q 678.592 314.706 680.518 310.570 Q 682.444 306.434 687.212 302.126 Q 691.980 297.819 695.034 296.661 Q 698.088 295.503 700.404 295.439 Q 702.720 295.375 704.612 298.818 Q 706.504 302.260 706.869 309.705 Q 707.234 317.149 703.450 331.447 Q 699.666 345.744 699.369 349.918 Q 699.072 354.092 700.667 355.549 Q 702.262 357.007 705.045 355.715 Q 707.828 354.423 716.312 354.652 Q 724.795 354.881 727.315 345.547 Q 729.835 336.213 731.235 327.705 Q 732.635 319.198 732.762 314.999 Q 732.889 310.799 732.397 306.199 Q 731.905 301.598 730.573 296.368 Q 729.241 291.138 727.256 286.671 Q 725.271 282.204 722.946 278.431 Q 720.621 274.658 717.177 271.877 Q 713.732 269.097 708.192 268.498 Q 702.652 267.900 696.917 270.318 Q 691.182 272.736 685.651 277.699 Q 680.119 282.662 681.214 277.534 Q 682.308 272.405 680.119 271.871 Q 677.930 271.336 670.439 273.194 L 662.948 275.052 "></path>
    <path id="STROKE_FF36E301-AED6-47FB-BEDF-9C77D94AD1FB" opacity="1.000" fill="none" stroke="#000000" stroke-width="3.163" stroke-opacity="1.000" stroke-linecap="round" stroke-linejoin="round" d="M 814.708 272.011 Q 814.182 282.535 811.925 282.930 Q 809.668 283.324 803.797 279.614 Q 797.927 275.905 792.030 275.409 Q 786.134 274.912 779.966 276.700 Q 773.798 278.488 770.023 280.842 Q 766.248 283.197 762.099 287.994 Q 757.950 292.792 755.965 296.896 Q 753.980 301.000 751.757 308.846 Q 749.534 316.691 748.839 320.229 Q 748.143 323.767 748.007 328.965 Q 747.872 334.164 748.567 337.504 Q 749.263 340.845 750.459 343.199 Q 751.655 345.553 755.066 349.460 Q 758.476 353.367 763.126 356.408 Q 767.775 359.450 769.989 360.309 Q 772.203 361.168 776.980 361.836 Q 781.756 362.504 787.992 361.938 Q 794.228 361.372 799.462 358.890 Q 804.697 356.408 807.182 352.998 Q 809.668 349.587 808.777 355.976 Q 807.887 362.364 808.116 368.256 Q 808.345 374.148 806.589 382.026 Q 804.832 389.903 803.076 393.046 Q 801.320 396.189 797.808 400.332 Q 794.295 404.474 791.080 405.963 Q 787.865 407.452 780.501 408.177 Q 773.137 408.903 769.692 408.012 Q 766.248 407.121 764.220 411.123 Q 762.192 415.125 765.009 417.639 Q 767.826 420.152 771.508 420.884 Q 775.190 421.616 784.437 421.348 Q 793.685 421.081 800.913 417.836 Q 808.141 414.591 811.127 411.479 Q 814.114 408.368 816.532 403.507 Q 818.950 398.646 822.301 387.555 Q 825.652 376.464 827.179 366.074 Q 828.706 355.683 829.767 339.267 Q 830.827 322.850 830.827 316.793 Q 830.827 310.735 829.597 291.634 Q 828.367 272.533 827.603 270.611 Q 826.840 268.689 820.706 269.517 L 814.572 270.344 "></path>
    <path id="STROKE_CEE18323-63B4-46E0-8956-78EBCE872AC4" opacity="1.000" fill="none" stroke="#000000" stroke-width="3.163" stroke-opacity="1.000" stroke-linecap="round" stroke-linejoin="round" d="M 804.493 307.427 Q 803.441 314.235 803.543 322.081 Q 803.645 329.926 800.361 332.541 Q 797.078 335.156 792.404 336.085 Q 787.729 337.014 785.039 337.046 Q 782.350 337.078 778.702 334.991 Q 775.054 332.904 773.663 330.823 Q 772.271 328.743 771.677 325.427 Q 771.083 322.112 773.434 317.811 Q 775.784 313.510 778.872 310.233 Q 781.960 306.956 783.249 306.161 Q 784.539 305.365 791.470 305.766 Q 798.402 306.167 799.691 307.688 L 800.981 309.208 "></path>
    <path id="STROKE_BE6E2FAD-D923-4291-B9A2-06D7A5D63C57" opacity="1.000" fill="none" stroke="#000000" stroke-width="3.163" stroke-opacity="1.000" stroke-linecap="round" stroke-linejoin="round" d="M 475.182 437.765 Q 481.868 430.486 484.388 426.808 Q 486.907 423.130 486.415 419.128 Q 485.923 415.125 484.464 412.409 Q 483.005 409.692 477.168 404.633 Q 471.331 399.574 467.386 398.016 Q 463.441 396.457 459.267 395.566 Q 455.093 394.675 445.141 394.306 Q 435.189 393.937 427.138 396.189 Q 419.087 398.442 415.634 400.332 Q 412.181 402.221 407.939 406.128 Q 403.697 410.035 400.448 414.006 Q 397.199 417.976 394.221 422.907 Q 391.243 427.839 390.445 431.115 Q 389.648 434.392 389.843 437.370 Q 390.038 440.348 391.430 441.939 Q 392.821 443.530 398.098 446.571 Q 403.375 449.612 408.508 453.583 Q 413.640 457.553 425.017 464.177 Q 436.394 470.801 441.128 475.070 Q 445.862 479.340 449.213 485.531 Q 452.564 491.722 453.294 496.622 Q 454.024 501.521 450.910 507.413 Q 447.797 513.305 444.878 515.882 Q 441.960 518.459 438.608 519.986 Q 435.257 521.513 429.327 523.066 Q 423.397 524.619 418.256 524.752 Q 413.114 524.886 409.466 523.658 Q 405.818 522.430 396.537 515.380 Q 387.255 508.329 378.933 517.002 Q 370.610 525.675 370.551 527.533 Q 370.491 529.391 375.522 535.346 Q 380.553 541.302 384.201 543.784 Q 387.849 546.265 394.051 549.510 Q 400.253 552.755 406.387 554.741 Q 412.521 556.726 417.492 557.655 Q 422.464 558.584 428.530 559.010 Q 434.596 559.436 439.805 558.049 Q 445.014 556.662 451.742 553.684 Q 458.469 550.706 464.170 547.029 Q 469.872 543.351 472.951 538.152 Q 476.031 532.954 477.821 528.226 Q 479.611 523.499 480.213 518.994 Q 480.816 514.489 480.578 504.925 Q 480.341 495.362 479.051 492.015 Q 477.762 488.668 474.512 483.775 Q 471.263 478.882 465.494 473.053 Q 459.725 467.225 446.660 458.616 Q 433.594 450.007 432.305 448.155 Q 431.015 446.304 430.549 442.333 Q 430.082 438.363 432.144 434.819 Q 434.205 431.275 438.846 429.289 Q 443.487 427.304 449.290 427.272 Q 455.093 427.240 458.605 429.130 Q 462.117 431.020 467.123 434.825 L 472.128 438.630 "></path>
    <path id="STROKE_B5D3DF00-FC41-4C28-8E73-DC979A91A5E5" opacity="1.000" fill="none" stroke="#000000" stroke-width="3.163" stroke-opacity="1.000" stroke-linecap="round" stroke-linejoin="round" d="M 559.784 452.399 Q 555.203 449.154 552.318 449.084 Q 549.433 449.014 544.861 450.376 Q 540.288 451.738 537.039 454.054 Q 533.789 456.370 529.641 460.474 Q 525.492 464.578 522.641 468.746 Q 519.791 472.913 517.967 478.506 Q 516.143 484.099 515.515 488.172 Q 514.887 492.244 514.590 500.159 Q 514.293 508.075 515.023 512.739 Q 515.752 517.403 516.677 519.255 Q 517.602 521.106 521.852 525.045 Q 526.103 528.983 531.473 531.866 Q 536.843 534.748 538.498 535.016 Q 540.152 535.283 548.144 534.551 Q 556.136 533.819 559.444 532.464 Q 562.753 531.109 565.307 528.754 Q 567.860 526.400 572.798 518.128 Q 577.736 509.857 579.169 505.950 Q 580.603 502.043 580.934 497.347 Q 581.265 492.651 580.595 489.107 Q 579.925 485.563 577.770 479.734 Q 575.615 473.906 572.866 469.376 Q 570.117 464.845 563.423 458.221 L 556.730 451.598 "></path>
    <path id="STROKE_B004C402-E771-45B8-BE51-35B3952DFC01" opacity="1.000" fill="none" stroke="#000000" stroke-width="3.158" stroke-opacity="1.000" stroke-linecap="round" stroke-linejoin="round" d="M 548.110 479.544 Q 542.545 480.205 541.213 481.427 Q 539.881 482.649 538.591 485.697 Q 537.302 488.744 537.302 491.321 Q 537.302 493.898 538.990 496.151 Q 540.678 498.403 543.927 499.498 Q 547.177 500.592 550.655 500.656 Q 554.134 500.719 555.330 500.026 Q 556.526 499.332 557.485 497.710 Q 558.443 496.087 558.715 492.944 Q 558.986 489.801 558.223 488.076 Q 557.459 486.352 555.932 484.303 Q 554.405 482.254 551.987 480.498 L 549.569 478.742 "></path>
    <path id="STROKE_B5072776-E956-4FF9-BB07-8A347B98C9F5" opacity="1.000" fill="none" stroke="#000000" stroke-width="3.163" stroke-opacity="1.000" stroke-linecap="round" stroke-linejoin="round" d="M 646.235 453.188 Q 637.344 452.399 631.082 455.575 Q 624.821 458.750 621.436 463.051 Q 618.051 467.352 615.531 471.953 Q 613.012 476.553 610.730 482.082 Q 608.447 487.612 607.183 492.677 Q 605.919 497.742 605.724 502.043 Q 605.529 506.344 606.623 509.258 Q 607.718 512.173 613.054 517.797 Q 618.391 523.422 623.065 526.241 Q 627.740 529.060 631.057 530.383 Q 634.374 531.707 639.380 532.069 Q 644.385 532.432 648.457 530.746 Q 652.530 529.060 655.482 526.941 Q 658.434 524.822 660.954 521.972 Q 663.474 519.121 665.595 515.679 Q 667.716 512.236 668.310 510.251 Q 668.904 508.266 668.844 501.413 Q 668.785 494.560 666.265 486.454 Q 663.745 478.347 661.887 474.008 Q 660.029 469.668 658.205 466.958 Q 656.381 464.247 651.079 459.615 Q 645.776 454.983 644.411 454.385 L 643.045 453.786 "></path>
    <path id="STROKE_BD1A68F4-3647-4126-BFD0-5366466F9E5D" opacity="1.000" fill="none" stroke="#000000" stroke-width="3.157" stroke-opacity="1.000" stroke-linecap="round" stroke-linejoin="round" d="M 640.805 480.065 Q 636.546 479.009 635.392 479.773 Q 634.238 480.536 631.685 483.183 Q 629.131 485.830 627.604 488.643 Q 626.077 491.455 625.848 495.126 Q 625.619 498.798 627.044 500.522 Q 628.469 502.246 631.880 503.271 Q 635.290 504.295 638.837 504.327 Q 642.383 504.359 644.606 503.169 Q 646.828 501.979 648.025 499.860 Q 649.221 497.742 649.382 495.324 Q 649.543 492.906 649.145 491.582 Q 648.746 490.259 645.870 485.264 Q 642.994 480.269 641.831 479.143 L 640.669 478.016 "></path>
    <path id="STROKE_583E00C6-4218-402F-B320-57B4A7F406D5" opacity="1.000" fill="none" stroke="#000000" stroke-width="3.058" stroke-opacity="1.000" stroke-linecap="round" stroke-linejoin="round" d="M 687.941 457.362 Q 686.211 473.842 685.778 483.476 Q 685.345 493.109 683.555 508.864 Q 681.765 524.619 690.919 524.453 Q 700.073 524.288 703.026 522.334 Q 705.978 520.381 704.816 511.409 Q 703.654 502.437 703.654 498.499 Q 703.654 494.560 704.349 490.163 Q 705.045 485.767 706.105 483.578 Q 707.166 481.389 710.186 478.309 Q 713.206 475.230 715.752 474.237 Q 718.297 473.244 722.216 473.874 Q 726.136 474.504 727.688 476.788 Q 729.241 479.073 730.106 482.515 Q 730.972 485.957 730.972 489.864 Q 730.972 493.771 730.242 503.036 Q 729.512 512.300 729.512 518.688 Q 729.512 525.077 736.707 524.517 Q 743.901 523.957 746.183 521.641 Q 748.465 519.325 749.331 512.701 Q 750.196 506.077 750.001 495.489 Q 749.806 484.901 747.880 475.134 Q 745.954 465.367 744.996 462.224 Q 744.037 459.080 742.247 455.874 Q 740.457 452.667 738.497 451.140 Q 736.537 449.612 733.059 448.919 Q 729.580 448.225 724.575 448.257 Q 719.569 448.289 715.022 451.070 Q 710.475 453.850 705.800 458.851 Q 701.125 463.853 701.465 458.291 Q 701.804 452.730 701.371 451.668 Q 700.939 450.605 694.873 452.425 L 688.807 454.245 "></path>
    <path id="STROKE_626FDC0B-A79C-40CF-AA34-1433AB223336" opacity="1.000" fill="none" stroke="#000000" stroke-width="3.163" stroke-opacity="1.000" stroke-linecap="round" stroke-linejoin="round" d="M 777.056 501.050 Q 772.678 500.452 771.313 501.381 Q 769.947 502.310 768.157 504.792 Q 766.366 507.273 766.103 510.716 Q 765.840 514.158 766.468 515.450 Q 767.096 516.741 769.421 517.867 Q 771.745 518.994 775.029 519.191 Q 778.312 519.388 779.635 518.230 Q 780.959 517.072 782.019 514.260 Q 783.080 511.447 782.817 508.170 Q 782.554 504.893 781.264 502.940 Q 779.975 500.987 778.049 500.261 L 776.123 499.536 "></path>
    <path id="STROKE_06C06DD2-6974-430F-8489-B3950B9D68EC" opacity="1.000" fill="none" stroke="#000000" stroke-width="3.163" stroke-opacity="1.000" stroke-linecap="round" stroke-linejoin="round" d="M 805.766 498.861 Q 803.034 497.207 800.981 497.341 Q 798.928 497.474 797.273 498.270 Q 795.619 499.065 794.058 500.325 Q 792.497 501.585 791.402 503.570 Q 790.308 505.555 790.240 507.572 Q 790.172 509.589 791.368 511.613 Q 792.565 513.636 794.160 514.921 Q 795.755 516.207 797.205 516.805 Q 798.656 517.403 802.007 517.734 Q 805.358 518.065 807.378 516.016 Q 809.397 513.967 809.702 510.124 Q 810.008 506.281 809.575 504.855 Q 809.142 503.430 808.116 502.011 Q 807.089 500.592 805.299 499.765 Q 803.509 498.938 802.347 498.938 L 801.184 498.938 "></path>
    <path id="STROKE_713FF00F-2284-44CA-95B5-647B607D504F" opacity="1.000" fill="none" stroke="#000000" stroke-width="3.163" stroke-opacity="1.000" stroke-linecap="round" stroke-linejoin="round" d="M 829.962 499.065 Q 825.584 497.945 824.422 498.505 Q 823.259 499.065 821.003 501.050 Q 818.746 503.036 817.957 504.594 Q 817.168 506.153 816.930 509.131 Q 816.693 512.109 817.592 513.299 Q 818.491 514.489 820.875 515.717 Q 823.259 516.945 826.373 517.441 Q 829.487 517.937 830.980 516.213 Q 832.473 514.489 832.710 512.701 Q 832.948 510.913 832.812 508.164 Q 832.677 505.415 832.015 504.060 Q 831.353 502.705 829.792 501.184 Q 828.231 499.663 827.103 499.561 L 825.974 499.460 "></path>
  </g>
</svg>